<?xml version="1.0" standalone="no"?><!DOCTYPE svg PUBLIC "-//W3C//DTD SVG 1.1//EN" "http://www.w3.org/Graphics/SVG/1.1/DTD/svg11.dtd"><svg class="icon" height="512" viewBox="0 0 1024 1024" version="1.1" xmlns="http://www.w3.org/2000/svg"><path d="M718.774857 734.208c-7.753143-61.513143 17.627429-139.922286 60.196572-185.197714l94.939428-101.083429-136.192-25.892571c-60.928-11.629714-127.634286-59.977143-157.549714-114.468572L513.462857 186.075429l-66.779428 121.490285c-29.842286 54.345143-96.548571 102.838857-157.549715 114.468572l-136.192 25.892571 94.939429 101.083429c42.422857 45.202286 68.022857 123.538286 60.196571 185.197714l-17.408 137.508571 125.44-59.026285c56.027429-26.477714 138.459429-26.477714 194.706286 0l125.44 59.026285-17.481143-137.508571z m-139.117714 144.603429c-36.571429-17.188571-96.109714-17.042286-132.388572 0l-179.712 84.699428c-36.571429 17.188571-62.025143-1.682286-57.051428-41.398857l25.014857-197.12c5.12-40.082286-13.458286-96.694857-40.96-125.878857L58.514286 454.217143c-27.648-29.403429-17.554286-59.465143 21.796571-66.925714l195.145143-37.156572c39.716571-7.606857 87.771429-42.715429 107.154286-77.824l95.597714-174.08c19.456-35.474286 51.2-35.181714 70.436571 0l95.670858 174.08c19.456 35.401143 67.730286 70.290286 107.081142 77.824l195.145143 37.156572c39.716571 7.533714 49.225143 37.741714 21.796572 66.925714l-136.045715 144.822857c-27.721143 29.403429-45.933714 86.089143-40.96 125.878857l25.014858 197.12c5.12 40.082286-20.699429 58.514286-57.051429 41.398857l-179.638857-84.699428z" fill="#FFC457" /></svg>